<?xml version="1.0" encoding="UTF-8" standalone="no"?>
<!DOCTYPE svg PUBLIC "-//W3C//DTD SVG 1.1//EN" "http://www.w3.org/Graphics/SVG/1.1/DTD/svg11.dtd">
<svg width="100%" height="100%" viewBox="0 0 500 500" version="1.1" xmlns="http://www.w3.org/2000/svg" xmlns:xlink="http://www.w3.org/1999/xlink" xml:space="preserve" xmlns:serif="http://www.serif.com/" style="fill-rule:evenodd;clip-rule:evenodd;stroke-linejoin:round;stroke-miterlimit:2;">
    <g id="BT8Pdd.tif">
        <path d="M311.286,489.689L302.126,489.689C298.507,488.816 294.815,488.167 291.278,487.034C270.257,480.308 258.495,465.267 258.24,442.426C257.902,411.963 258.156,381.494 258.156,350.761C253.15,349.836 248.86,349.043 243.499,348.052L243.499,359.141C243.499,387.825 243.87,416.515 243.342,445.191C243.079,459.562 237.674,472.515 224.617,479.796C216.369,484.395 206.718,486.479 197.698,489.69L190.37,489.69C185.89,488.632 181.342,487.806 176.944,486.484C134.361,473.674 114.888,436.903 111.761,397.594C109.751,372.325 112.887,347.291 120.461,322.599C113.914,319.75 107.787,317.916 102.546,314.661C82.007,301.893 61.073,289.591 41.684,275.23C32.644,268.533 22.008,261.205 19.678,248.455C19.08,245.181 20.047,240.615 22.117,238.218C23.451,236.672 28.288,237.359 31.23,238.193C34.813,239.209 38.053,241.431 41.972,243.396L41.972,232.623C41.972,175.534 41.253,118.436 42.268,61.365C42.794,31.803 57.744,11.542 92.113,11.533C198.044,11.505 303.978,11.481 409.912,11.547C442.092,11.567 459.361,30.623 459.571,61.487C459.958,118.572 459.681,175.662 459.681,232.749L459.681,242.919C473.766,234.612 477.351,234.672 483.498,242.362L483.498,247.858C481.07,251.805 479.211,256.274 476.125,259.613C453.577,284.003 426.326,301.842 396.442,315.898C391.419,318.263 386.338,320.506 381.28,322.806C389.683,352.468 393.059,381.541 388.174,411.117C383.201,441.222 367.899,464.9 341.252,479.94C332.287,485.002 321.334,486.54 311.286,489.689ZM257.208,309.106C260.543,291.654 266.899,286.561 283.136,286.277C305.611,285.883 328.097,285.514 350.543,284.409C378.765,283.016 404.764,273.264 430.202,261.752C435.42,259.39 437.861,256.132 437.838,249.928C437.606,190.394 438.28,130.851 437.419,71.328C437.062,46.549 426.47,35.787 401.766,35.621C301.632,34.945 201.488,34.995 101.351,35.606C79.029,35.742 67.784,44.294 67.544,70.15C67.28,98.429 66.135,126.697 65.864,154.976C65.556,187.03 65.848,219.087 65.742,251.144C65.722,256.984 67.709,260.88 73.607,262.529C76.17,263.246 78.595,264.508 81.018,265.662C109.038,278.966 138.754,285.184 169.566,286.233C185.727,286.782 201.938,286.734 218.099,286.171C227.238,285.853 234.419,287.953 240.64,295.075C245.096,300.179 251.035,303.982 257.208,309.106Z" style="fill-rule:nonzero;"/>
        <path d="M243.5,208.679C245.186,238.346 218.353,262.21 187.884,262.35C157.283,262.492 130.56,238.468 131.392,207.363C132.074,181.888 156.005,154.833 191.076,155.801C218.352,156.555 245.599,182.467 243.5,208.679Z"/>
        <path d="M322.209,156.254C349.775,154.483 377.537,180.319 377.074,208.131C376.536,240.389 352.643,261.948 320.607,262.053C288.184,262.16 263.869,240.101 264.093,208.433C264.286,181.374 285.02,155.925 322.209,156.254Z"/>
    </g>
</svg>
